 <!DOCTYPE svg PUBLIC "-//W3C//DTD SVG 1.1//EN" "http://www.w3.org/Graphics/SVG/1.1/DTD/svg11.dtd">
<svg xmlns="http://www.w3.org/2000/svg" width="865.76" height="682.89" viewBox="0 0 865.76 682.89">
<defs>
<style xmlns="http://www.w3.org/1999/xhtml">*, ::after, ::before { box-sizing: border-box; }
img, svg { vertical-align: middle; }
</style>
<style xmlns="http://www.w3.org/1999/xhtml">*, body, html { -webkit-font-smoothing: antialiased; }
img, svg { max-width: 100%; }
</style>
</defs>
<path d="M823.09,282.88,681.93,655.47H163.76a41.26,41.26,0,0,1-40.33-32.55l-83-383.51a45.35,45.35,0,0,1,28.4-52.07L337,86.67l9.46-3.56,10.81-4.06,127-47.7,4.05-1.52,29-10.89A42.57,42.57,0,0,1,559,25.67l74.62,60.25L642,92.68l.38.31L664,110.45,807.85,226.63A49.67,49.67,0,0,1,823.09,282.88Z" fill="#c2f200" data-primary="true"/>
<path d="M823.09,282.88,681.93,655.47H163.76a41.26,41.26,0,0,1-40.33-32.55l-83-383.51a45.35,45.35,0,0,1,28.4-52.07L337,86.67l9.46-3.56,10.81-4.06,127-47.7,4.05-1.52,29-10.89A42.57,42.57,0,0,1,559,25.67l74.62,60.25L642,92.68l.38.31L664,110.45,807.85,226.63A49.67,49.67,0,0,1,823.09,282.88Z" fill="#fff" opacity="0.7"/>
<path d="M520.72,233.21,518.37,212a2.84,2.84,0,0,1,2.83-3.15h0a2.84,2.84,0,0,1,2.83,2.6l1.81,21.72Z" fill="#e6e6e6"/>
<path d="M664,110.45V375.09H337V86.67l9.46-3.56,10.81-4.06,127-47.7,4.05-1.52,29-10.89A42.57,42.57,0,0,1,559,25.67l74.62,60.25L642,92.68l.38.31Z" fill="#c2f200" data-primary="true"/>
<path d="M664,110.45V375.09H337V86.67l9.46-3.56,10.81-4.06,127-47.7,4.05-1.52,29-10.89A42.57,42.57,0,0,1,559,25.67l74.62,60.25L642,92.68l.38.31Z" fill="#fff" opacity="0.3"/>
<path d="M642.34,85.92V361.58H357.22V79.05l127-47.7,4.05-1.52,29-10.89A42.57,42.57,0,0,1,559,25.67l74.62,60.25Z" fill="#ebebeb"/>
<path d="M294.78,384.55s.2,2.81,4.17,3.75a9.17,9.17,0,0,0,4.87-.26,21.27,21.27,0,0,0,7-3.49Z" fill="#f9b499"/>
<path d="M358.82,641.1,391,639.93l-2.7,9.46s-13.78,5.27-15.67,5.34-8.65.07-8.65.07Z" fill="#f9b499"/>
<path d="M293.43,650.13s-25.39,3.32-20,11.42c0,0,4.05,6.76,44.59,2.71,0,0,22.76-3.19,29.38-11.26a6.65,6.65,0,0,0,1.36-5.1,40.71,40.71,0,0,0-7.23-18.07l-16.49-4S305.3,649.51,293.43,650.13Z" fill="#c2f200" data-primary="true"/>
<path d="M293.43,650.13s-25.39,3.32-20,11.42c0,0,4.05,6.76,44.59,2.71,0,0,22.76-3.19,29.38-11.26a6.65,6.65,0,0,0,1.36-5.1,40.71,40.71,0,0,0-7.23-18.07l-16.49-4S305.3,649.51,293.43,650.13Z" opacity="0.2"/>
<path d="M447.11,511.74a483,483,0,0,0-6.35,55.38,121.65,121.65,0,0,0,27,82.61l.78,1a1.7,1.7,0,0,1-1.31,2.77l-67,.49a1.7,1.7,0,0,1-1.11-3c.63-.53,1.32-1.13,2.06-1.8a71.3,71.3,0,0,0,22.52-61.21c-2.47-20.86-7.62-58.18-14.06-70.74l31.85-15.76Z" fill="#ccc"/>
<path d="M298.71,645.37s-7.7,5.37-6.35,8.08c0,0,10.71,2.73,24.28-4,0,0,14.91-6.77,20.31-17.58l-25.89-13.07Z" fill="#f9b499"/>
<path d="M358.82,641.1s-3.34,9.26-15.35,12.31a7,7,0,0,0-5.09,4.49c-1.11,3.34-.39,7.62,10.47,7.65,0,0,45.19,6.12,57.63-10.36a4.11,4.11,0,0,0,.54-3.81l-3.62-10.44H389.76s-13,10.74-27.5,4.85a1.57,1.57,0,0,1-1-1.47v-3.38Z" fill="#c2f200" data-primary="true"/>
<polygon points="357.22 79.05 357.22 376.44 346.41 376.44 346.41 83.11 357.22 79.05" fill="#fff" opacity="0.3"/>
<rect x="357.22" y="273.75" width="306.73" height="6.76" fill="#c2f200" data-primary="true"/>
<rect x="357.22" y="184.56" width="306.73" height="6.76" fill="#c2f200" data-primary="true"/>
<polygon points="641.96 92.68 357.22 92.68 357.22 85.92 633.58 85.92 641.96 92.68" fill="#c2f200" data-primary="true"/>
<polygon points="488.29 29.83 488.29 321.04 484.24 321.04 484.24 31.35 488.29 29.83" fill="#c2f200" data-primary="true"/>
<g opacity="0.3">
<rect x="357.22" y="273.75" width="306.73" height="6.76" fill="#fff"/>
<rect x="357.22" y="184.56" width="306.73" height="6.76" fill="#fff"/>
<polygon points="641.96 92.68 357.22 92.68 357.22 85.92 633.58 85.92 641.96 92.68" fill="#fff"/>
<polygon points="488.29 29.83 488.29 321.04 484.24 321.04 484.24 31.35 488.29 29.83" fill="#fff"/>
</g>
<path d="M529.71,356.85s-3.58,134.45-33.31,141.2c0,0-52.7,23.93-159.45,22.11,0,0-23.74-4.7-22-15.35a10.07,10.07,0,0,1,1.77-4.05l57.37-50.86s-17.49-124.66-12.42-145.67c0,0-29.23-69.76,95.58-55.72q10.19,1.13,21.76,3.05S533.29,242.67,529.71,356.85Z" fill="#999"/>
<path d="M529.71,356.85s-3.58,134.45-33.31,141.2c0,0-52.7,23.93-159.45,22.11,0,0-23.74-4.7-22-15.35,0,0,98.52,27.12,153.52-8.07,0,0,29.32-1.39,26.62-64.9,0,0,7.88-117.56-33.23-159.44l-4.61-23.89q10.19,1.13,21.76,3.05S533.29,242.67,529.71,356.85Z" fill="#b3b3b3"/>
<path d="M425.26,505.82c-1.16.23-1.83.34-1.83.34-12.16,1.35-9.46,12.16-9.46,12.16L409.6,640.89l-28.06.21-25.67.19,1.35-136.48-23,2.7c-12.16,2.71-6.76,16.22-6.76,16.22l18.92,105.4a18.74,18.74,0,0,0-9.46,2.7c-8,7.29-17.86,10.69-25.89,12.24a65.82,65.82,0,0,1-14.64,1.27L274.8,548.05c-5.6-29.83-4.76-44.23-3.7-50.29a14.69,14.69,0,0,1,2.55-6c29.41-41,100.4-41.84,100.4-41.84l1.13-17L381.54,421l92.81,7.85,1.78,36.74C479.75,493.37,435,503.88,425.26,505.82Z" fill="#a3435c" data-secondary="true"/>
<path d="M399.62,423.68q0,1.15-.12,2.19c-.33,3.57-1.25,7.38-3.42,10.22l0,0a2.39,2.39,0,0,1-.93.73l-.07,0a2.43,2.43,0,0,1-1.31.17l-17.18-2.29a1.6,1.6,0,0,1-1.37-1.92c.89-4.25,2.77-15.72-.19-26.19-.07-.23-.13-.46-.2-.69L358.57,380.5s-9.46-8.11-10.81-29.73c0,0-.35-18.15-3.55-25.28a29.57,29.57,0,0,1,3.55-22,35.93,35.93,0,0,1,12.94-11.28h0a40.42,40.42,0,0,1,8.74-3.45l1-.25a45.51,45.51,0,0,1,10.44-1.26c.91,0,1.68,0,2.24,0h.53l.58,0s-.5,10.3-.65,23.63v.61c-.06,5.66,0,11.85.11,18v.55c.09,3.61.23,7.19.42,10.66v0c.26,4.62.62,9,1.13,13,0,.1,0,.19,0,.27a71.85,71.85,0,0,0,1.64,8.91c.05.22.09.42.13.62l1.36,5.85a.28.28,0,0,1,0,.06l2.54,11v0L399,415l.15.64A41.78,41.78,0,0,1,399.62,423.68Z" fill="#c2f200" data-primary="true"/>
<path d="M435.59,434.55s-8.1,6.75-23,8.1c0,0-10.66,1-18.79-5.51.16.08.52.16,1.21-.24l.07,0a2.39,2.39,0,0,0,.93-.73l0,0c.36-.4,2.83-3.34,3.42-10.22q.11-1,.12-2.19a41.78,41.78,0,0,0-.51-8.05L399,415l-8-34.49v0l-2.54-11a.28.28,0,0,0,0-.06l-1.36-5.85c0-.2-.08-.4-.13-.62-.53-2.55-1.12-5.65-1.64-8.91,0-.08,0-.17,0-.27-.51-3.93-.87-8.35-1.13-13v0l-.42-10.66v-.55l-.11-18v-.61l.65-23.63s2.16-1.74,7.83-2.89l23.72-7.3s7.44-2.3,8.21,6c0,0-11.39,48.81-4.63,79.89C419.38,362.93,426.14,414.28,435.59,434.55Z" fill="#e6e6e6"/>
<path d="M435.59,434.55s44.6,4.05,43.24-14.87l-6.75-13.51s6.81-1.35,6.78-30.4c0,0,1.36-66.42-5.41-78.14,0,0-5.62-29.62-49.44-14.59,0,0-8.68,32.6-6.16,69.88C417.85,352.92,423.43,404.82,435.59,434.55Z" fill="#c2f200" data-primary="true"/>
<path d="M391,380.47,368.3,332.58a6.35,6.35,0,0,1,.64-6.49l3.54-4.77c-16.88-9-12-28.43-11.78-29.13h0a34.87,34.87,0,0,1,8.74-3.45l1-.25a53.13,53.13,0,0,1,12.68-1.26h.53l.58,0-.65,23.63v.61l.11,18v.55l.42,10.66v0c.26,4.62.62,9,1.13,13,0,.1,0,.19,0,.27.52,3.26,1.11,6.36,1.64,8.91.05.22.09.42.13.62l1.36,5.85a.28.28,0,0,1,0,.06Z" fill="#c2f200" data-primary="true"/>
<path d="M391,380.47,368.3,332.58a6.35,6.35,0,0,1,.64-6.49l3.54-4.77c-16.88-9-12-28.43-11.78-29.13h0a34.87,34.87,0,0,1,8.74-3.45l1-.25a53.13,53.13,0,0,1,12.68-1.26h.53l.58,0-.65,23.63v.61l.11,18v.55l.42,10.66v0c.26,4.62.62,9,1.13,13,0,.1,0,.19,0,.27.52,3.26,1.11,6.36,1.64,8.91.05.22.09.42.13.62l1.36,5.85a.28.28,0,0,1,0,.06Z" fill="#fff" opacity="0.3"/>
<path d="M421.25,377.22c1.88-7.32,18.4-50.77,18.4-50.77,4.05-8.11-2.79-9.61-2.79-9.61-6.85-2.84,1.24-6.55,1.24-6.55,17.38-10.75,10.08-31.45,10.08-31.45A67.09,67.09,0,0,0,424,283s-5.91,26.42-6.62,48.42c0,0-.37,17.47.81,24.47Z" fill="#c2f200" data-primary="true"/>
<path d="M421.25,377.22c1.88-7.32,18.4-50.77,18.4-50.77,4.05-8.11-2.79-9.61-2.79-9.61-6.85-2.84,1.24-6.55,1.24-6.55,17.38-10.75,10.08-31.45,10.08-31.45A67.09,67.09,0,0,0,424,283s-5.91,26.42-6.62,48.42c0,0-.37,17.47.81,24.47Z" fill="#fff" opacity="0.3"/>
<path d="M445.05,338.61c.33,7.61-1.19,27,4.65,31.94-7.63-4.76-6.08-24.07-4.65-31.94Z" fill="#c2f200" data-primary="true"/>
<path d="M445.05,338.61c.33,7.61-1.19,27,4.65,31.94-7.63-4.76-6.08-24.07-4.65-31.94Z" opacity="0.2"/>
<path d="M359.89,339.64c-1.68,11.4-4.37,24.68,3.66,34.33,2.4,3.22,4.92,6.59,5.83,10.58a20.92,20.92,0,0,0-2.92-5.22,57.56,57.56,0,0,0-3.71-4.7,23.65,23.65,0,0,1-5.48-10.94c-1.24-8.06.37-16.32,2.62-24.05Z" opacity="0.2"/>
<path d="M357.22,504.81c-1.72-18.23,15.84-30.85,31-36.81,2.31-.79,4.6-1.63,6.91-2.38-2.21,1-4.44,2-6.65,3-14.51,6.9-31.19,18.42-31.24,36.2Z" opacity="0.2"/>
<path d="M425.26,505.82c-1.16.23-1.83.34-1.83.34-12.16,1.35-9.46,12.16-9.46,12.16L409.6,640.89l-28.06.21,23-114.67S408.16,500.07,425.26,505.82Z" opacity="0.2"/>
<path d="M346.41,629.13a18.74,18.74,0,0,0-9.46,2.7c-8,7.29-17.86,10.69-25.89,12.24l4.27-14.94C323.44,596.7,320.74,517,320.74,517c0-13.51,13.51-9.46,13.51-9.46-12.16,2.71-6.76,16.22-6.76,16.22Z" opacity="0.2"/>
<path d="M301.82,388.6s9.27,18.92,16.12,21.62h28.47l8.81-19.11s1.26-3.29,5.68-6.95l-2.33-3.66-8.2-5Z" fill="#c2f200" data-primary="true"/>
<path d="M338.84,307.53a2.37,2.37,0,0,1,2.36,2.13c.39,3.88,1.36,12.08,3,15.83,0,0,3.36,9.05,3.46,22.57l.34,5.69A54.22,54.22,0,0,0,350.78,367s2.39,8.12,7.79,13.53l3,4.76s1,3.34-12.5,2c0,0-21.39-3.73-40.08,18.91a1.72,1.72,0,0,1-2.88-.37,65.75,65.75,0,0,1-5.68-18.54l4-59.45s21.24-20.27,22.11-20.27Z" fill="#e6e6e6"/>
<rect x="313.98" y="279.15" width="22.97" height="105.4" fill="#a3435c" data-secondary="true"/>
<rect x="313.98" y="279.15" width="22.97" height="105.4" opacity="0.2"/>
<rect x="216.69" y="410.22" width="171.61" height="5.4" fill="#a3435c" data-secondary="true"/>
<rect x="216.69" y="410.22" width="171.61" height="5.4" fill="#fff" opacity="0.1"/>
<rect x="292.36" y="410.22" width="95.94" height="5.4" fill="#fff" opacity="0.1"/>
<path d="M93.82,415.63H447.76a0,0,0,0,1,0,0v14.86a0,0,0,0,1,0,0H93.82a5.5,5.5,0,0,1-5.5-5.5v-3.86a5.5,5.5,0,0,1,5.5-5.5Z" fill="#3f4347"/>
<path d="M453.26,415.63H653.15a0,0,0,0,1,0,0v14.86a0,0,0,0,1,0,0H453.26a5.5,5.5,0,0,1-5.5-5.5v-3.86A5.5,5.5,0,0,1,453.26,415.63Z" transform="translate(1100.9 846.12) rotate(180)" fill="#2e3135"/>
<polygon points="476.34 430.49 619.54 653.99 626.12 653.45 484.97 430.49 476.34 430.49" fill="#2e3135"/>
<polygon points="626.12 430.49 482.92 653.99 476.34 653.45 617.49 430.49 626.12 430.49" fill="#2e3135"/>
<polygon points="111.5 430.49 254.71 653.99 261.28 653.45 120.14 430.49 111.5 430.49" fill="#2e3135"/>
<polygon points="261.28 430.49 118.08 653.99 111.5 653.45 252.65 430.49 261.28 430.49" fill="#2e3135"/>
<rect x="561.26" y="258.88" width="63.51" height="24.32" fill="#c2f200" data-primary="true"/>
<rect x="561.26" y="258.88" width="63.51" height="24.32" fill="#fff" opacity="0.35"/>
<rect x="568.02" y="265.64" width="35.13" height="10.81" fill="#fff" opacity="0.35"/>
<rect x="607.2" y="265.64" width="4.05" height="10.81" fill="#fff" opacity="0.35"/>
<rect x="616.66" y="265.64" width="4.05" height="10.81" fill="#fff" opacity="0.35"/>
<polygon points="628.71 342.66 628.71 283.21 540.63 283.21 540.63 322.75 527.48 322.75 527.48 342.66 628.71 342.66" fill="#ccc"/>
<rect x="489.3" y="342.66" width="57.1" height="50" fill="#ccc"/>
<rect x="546.05" y="342.66" width="76.01" height="50" fill="#e6e6e6"/>
<polygon points="570.72 306.18 611.26 306.18 584.06 315.18 570.72 306.18" fill="#e6e6e6"/>
<polygon points="551.8 329.15 592.34 329.15 565.14 338.15 551.8 329.15" fill="#e6e6e6"/>
<polygon points="491 366.98 531.53 366.98 504.34 375.99 491 366.98" fill="#e6e6e6"/>
<polygon points="613.96 380.5 613.96 373.74 566.84 373.74 613.96 380.5" fill="#ccc"/>
<rect x="480.65" y="392.66" width="84.29" height="22.97" fill="#c2f200" data-primary="true"/>
<rect x="480.65" y="392.66" width="84.29" height="22.97" fill="#fff" opacity="0.25"/>
<rect x="563.96" y="392.66" width="63.51" height="22.97" fill="#c2f200" data-primary="true"/>
<rect x="563.96" y="392.66" width="63.51" height="22.97" fill="#fff" opacity="0.35"/>
<rect x="570.72" y="398.06" width="27.02" height="12.16" fill="#fff" opacity="0.35"/>
<polygon points="530.18 258.88 509.91 258.88 505.86 233.21 535.59 233.21 530.18 258.88" fill="#a3435c" data-secondary="true"/>
<path d="M509.91,258.88l-.4-2.58s15.85-2.82,21-23.09h5.12l-5.41,25.67Z" opacity="0.2"/>
<path d="M507.65,211.43l3.71,21.78h5.79l-4-22.73a2.8,2.8,0,0,0-3.42-2.22h0A2.78,2.78,0,0,0,507.65,211.43Z" fill="#c2f200" data-primary="true"/>
<path d="M521.5,233.21l7.33-22.85a3.65,3.65,0,0,1,4.36-2.42h0a3.64,3.64,0,0,1,2.58,4.63l-6.55,20.64Z" fill="#c2f200" data-primary="true"/>
<path d="M391.78,281.85s1.93,6.76-.78,12.17c0,0-4.05,16.21,4.06,16.21,0,0,5.4,1.93,16.21-16.6,0,0,9.46-14.48,2.7-18.53,0,0-4.05-4.06-2.7-12.16l1.35-7.15-6.75.39Z" fill="#f9b499"/>
<path d="M391.78,281.85A18.48,18.48,0,0,1,391,294s16.29-4.06,12.2-21.62Z" fill="#f7a48b"/>
<ellipse cx="380.78" cy="246.8" rx="26.9" ry="39.23" transform="translate(-54.98 120.24) rotate(-16.75)" fill="#f9b499"/>
<path d="M485.59,284.56c-2.7,5.4-8.11,10.81-8.11,10.81-9.46,6.75-16.21,1.35-16.21,1.35a12.79,12.79,0,0,0-9.46-5.41c-33.78,1.35-27-28.37-25.67-39.18.65-5.24.35-7.94-.13-9.33a.8.8,0,0,0-1.53.08,26.11,26.11,0,0,1-5.14,11.1l-10.82-5.58c-2-5.66-8.22-9.69-11.45-11.47a3.09,3.09,0,0,0-3.3.25c-4,2.85-9.52-2.62-9.52-2.62-4.06-4.05-5.41-1.35-5.41-1.35a9.5,9.5,0,0,1-.63,2.76c-4.1,10.23-25.37-1.54-25.37-1.54a58.59,58.59,0,0,0,4.6,26.7c-17.34-1.8-9.68-19.81-9.68-19.81a23.17,23.17,0,0,1-3.55-11.72c-.15-14,14.36-23.42,14.36-23.42,13.52-20.26,36.49-8.1,36.49-8.1-1.35-16.22,14.86-17.57,14.86-17.57,29.73-9.46,29.73,31.08,29.73,31.08,0,13.51,18.92,24.32,18.92,24.32,7.77,5.83,7.86,21.43,7.29,29.74a15.47,15.47,0,0,0,8.34,14.86A53.09,53.09,0,0,0,485.59,284.56Z" fill="#a3435c" data-secondary="true"/>
<path d="M378.21,236c-4.1,10.23-25.37-1.54-25.37-1.54a58.59,58.59,0,0,0,4.6,26.7c-17.34-1.8-9.68-19.81-9.68-19.81a23.17,23.17,0,0,1-3.55-11.72c5.66-1.07,18,6.37,18,6.37C371.32,241.43,378.21,236,378.21,236Z" opacity="0.2"/>
<path d="M399.11,217c2.53,4.12,6.86,6.69,11.19,8.56,8.69,4.54,8.82,13.87,4.6,21.65a45.54,45.54,0,0,0,1.2-4.66c1.72-6.06-.67-12.94-6.39-15.86-4.34-2.05-8.75-5.12-10.6-9.69Z" opacity="0.2"/>
<path d="M485.51,284.72c-2.73,5.35-8,10.65-8,10.65-9.46,6.75-16.21,1.35-16.21,1.35a12.79,12.79,0,0,0-9.46-5.41c-33.78,1.35-27-28.37-25.67-39.18.65-5.24.35-7.94-.13-9.33a.8.8,0,0,0-1.53.08,26.11,26.11,0,0,1-5.14,11.1s9.5-24.82,1.39-42.39c0,0,15.1,16.26,14.07,35.86a24.13,24.13,0,0,1-1.38,6.77c-1.75,4.94-5,17.46,3.53,24.93,0,0,9.45,6.76,20.26,5.41a7.33,7.33,0,0,1,6.59,1.89,11.5,11.5,0,0,0,8.71,3.67c3.37-.18,7.78-1.48,12.93-5.45C485.47,284.65,485.53,284.68,485.51,284.72Z" opacity="0.2"/>
<path d="M417.17,197.69c10.24-4.39,12.73,14.51,13.64,21.12,1.19,4.49,3,12.38,8.62,12.66a4.73,4.73,0,0,1,3.69,1.09c2.86,2.57,3.52,6.58,3.94,10.19-.72,8.4.57,17.32,4.66,24.78,4.09,7.68,11.93,12.62,20.36,14.32-8.64-1.19-16.87-6.1-21.21-13.82s-5.76-16.7-5.12-25.44c-.4-2.41-1-7-3.46-9a3.23,3.23,0,0,0-2.77-.83c-6.49-.22-8.57-8.55-9.74-13.71-.82-6.57-2.47-25.08-12.61-21.33Z" opacity="0.2"/>
<ellipse cx="412.62" cy="254.83" rx="6.76" ry="8.11" fill="#f9b499"/>
<path d="M353.17,223.75c6.16,8.77,16.91,8.5,24.76,2.32a9.56,9.56,0,0,1,12.07-.8c2.41,1.43,4.07,3.72,6.29,5.37,4.2,3.33,9.45,5.66,15,5.27a18.17,18.17,0,0,1-8.21-.61,27.2,27.2,0,0,1-7.39-3.83c-2.29-1.49-3.95-3.8-6.31-5.14a8.42,8.42,0,0,0-9-.41,36.14,36.14,0,0,1-5.19,3.43c-7.85,4.18-17.46,2.46-22-5.6Z" opacity="0.2"/>
<path d="M470.78,406.78c-8.33,4.13-55.93-.66-66.77-1.82a2.53,2.53,0,0,1-2.26-2.45l-.09-3.27c-1.5-19.1-5.62-23.76-5.62-23.76l63.88-.39" fill="#c2f200" data-primary="true"/>
<path d="M427.2,407c6.89-.23,13.79-.07,20.67.2s13.66.92,20.56.18c-6.72,1.78-13.78,1.48-20.63,1.17s-13.75-.74-20.6-1.55Z" fill="#c2f200" data-primary="true"/>
<path d="M457.79,369.4c-4.64-3.65-9.91,1.81-12.87,5.25-.17.22-.13.17-.39.19-12.19.54-24.38.92-36.59,1-4.07,0-8.14,0-12.21-.06,12.18-.94,24.37-1.43,36.57-1.75,4.07-.07,8.13-.21,12.2-.24l-.38.18c3.15-3.43,9.23-8.86,13.67-4.56Z" fill="#c2f200" data-primary="true"/>
<path d="M457.79,369.4c-4.64-3.65-9.91,1.81-12.87,5.25-.17.22-.13.17-.39.19-12.19.54-24.38.92-36.59,1-4.07,0-8.14,0-12.21-.06,12.18-.94,24.37-1.43,36.57-1.75,4.07-.07,8.13-.21,12.2-.24l-.38.18c3.15-3.43,9.23-8.86,13.67-4.56Z" opacity="0.2"/>
<path d="M427.2,407c6.89-.23,13.79-.07,20.67.2s13.66.92,20.56.18c-6.72,1.78-13.78,1.48-20.63,1.17s-13.75-.74-20.6-1.55Z" opacity="0.2"/>
<path d="M401.66,399.24c-3.9,5.58-26.22,3.35-26.22,3.35-4.76-.88-8.46,7.63-8.46,7.63H346.41l8.11-17.56c5.4-13.52,19.07-12.19,19.07-12.19l22.45-5,0,0C396.37,376,400.8,383.32,401.66,399.24Z" fill="#f9b499"/>
<path d="M350.94,410.22a31.32,31.32,0,0,1,4.93-12.16,31,31,0,0,1-4.93,12.16Z" fill="#f7a48b"/>
<path d="M360.9,398.06a28.94,28.94,0,0,1-3.43,12.16,29.17,29.17,0,0,1,3.43-12.16Z" fill="#f7a48b"/>
<path d="M366,399.24a23.29,23.29,0,0,1-2.61,11,23.2,23.2,0,0,1,2.61-11Z" fill="#f7a48b"/>
<rect x="177.51" y="279.15" width="151.34" height="105.4" fill="#a3435c" data-secondary="true"/>
<path d="M273,410.22H236s-7.9-5.58-10.83-18.75A45.71,45.71,0,0,1,227,366.16l9-25.38h36v0c-.45.73-17.15,27.7-12,45.74C260.09,386.54,263.09,403.47,273,410.22Z" fill="#a3435c" data-secondary="true"/>
<path d="M277.16,410.22H273c-9.91-6.75-12.91-23.68-12.91-23.68-5.16-18,11.54-45,12-45.74v0l2.71,5.93S247.77,381.85,277.16,410.22Z" fill="#a3435c" data-secondary="true"/>
<path d="M277.16,410.22H273c-9.91-6.75-12.91-23.68-12.91-23.68-5.16-18,11.54-45,12-45.74v0l2.71,5.93S247.77,381.85,277.16,410.22Z" opacity="0.2"/>
<polygon points="527.48 342.66 527.48 322.75 540.63 322.75 540.63 283.21 471.05 283.21 471.05 322.48 458.57 322.48 458.57 342.66 527.48 342.66" fill="#e6e6e6"/>
<polygon points="476.13 299.42 516.67 299.42 489.47 308.43 476.13 299.42" fill="#ccc"/>
<rect x="601.8" y="398.06" width="4.05" height="12.16" fill="#fff" opacity="0.35"/>
<rect x="611.26" y="398.06" width="4.05" height="12.16" fill="#fff" opacity="0.35"/>
<rect x="619.36" y="398.06" width="4.05" height="12.16" fill="#fff" opacity="0.35"/>
<rect x="477.48" y="258.88" width="83.78" height="24.32" fill="#c2f200" data-primary="true"/>
<rect x="477.48" y="258.88" width="83.78" height="24.32" fill="#fff" opacity="0.25"/>
<rect x="577.48" y="557.51" width="95.94" height="21.62" fill="#c2f200" data-primary="true"/>
<rect x="590.99" y="576.43" width="75.67" height="79.72" fill="#c2f200" data-primary="true"/>
<polygon points="742.33 557.51 653.14 557.51 653.14 579.13 666.66 579.13 666.66 656.15 732.28 656.15 732.28 579.13 742.33 579.13 742.33 557.51" fill="#c2f200" data-primary="true"/>
<polygon points="742.33 557.51 653.14 557.51 653.14 579.13 666.66 579.13 666.66 656.15 732.28 656.15 732.28 579.13 742.33 579.13 742.33 557.51" opacity="0.2"/>
<rect x="695.03" y="630.48" width="28.38" height="4.05" opacity="0.2"/>
<rect x="695.03" y="639.93" width="28.38" height="4.05" opacity="0.2"/>
<rect x="616.66" y="580.48" width="24.32" height="13.51" fill="#fff" opacity="0.3"/>
<rect x="616.66" y="580.48" width="5.4" height="13.51" fill="#fff" opacity="0.3"/>
<path d="M259.66,182.87s8.11-35.14-13.51-44.6c0,0-1.21-3.77,7.5-5.94,0,0,39.79-11.62,54.66-7.57l6.75,41.89S274.52,143.68,259.66,182.87Z" fill="#fff"/>
</svg>