<?xml version="1.0" ?><svg width="32px" height="32px" viewBox="0 0 32 32" data-name="Layer 1" id="Layer_1" xmlns="http://www.w3.org/2000/svg"><title/><path d="M14.13,12.48H7.4a.94.94,0,1,0,0,1.87h6.73a.94.94,0,0,0,0-1.87Z"/><path d="M11.6,16.69H7.4a.93.93,0,1,0,0,1.86h4.2a.93.93,0,1,0,0-1.86Z"/><path d="M28.48,6.86a.91.91,0,0,0-.28-.66L24.28,2.27a.94.94,0,0,0-1.32,0l-2.3,2.3H6.14A2.63,2.63,0,0,0,3.52,7.19V27.38A2.62,2.62,0,0,0,6.14,30h14.3a2.61,2.61,0,0,0,2.61-2.62V12.67L28.2,7.52A.94.94,0,0,0,28.48,6.86Zm-8,21.27H6.14a.75.75,0,0,1-.75-.75V7.19a.76.76,0,0,1,.75-.75H18.79L16.24,9a.92.92,0,0,0-.21.89v3.69a.92.92,0,0,0,.93.93h3.86a.94.94,0,0,0,.37-.07V27.38A.75.75,0,0,1,20.44,28.13Zm0-15.48H17.89V10l5.73-5.73,2.6,2.61Z"/></svg>