<?xml version="1.0" encoding="iso-8859-1"?>
<!-- Generator: Adobe Illustrator 19.0.0, SVG Export Plug-In . SVG Version: 6.00 Build 0)  -->
<svg version="1.1" id="Layer_1" xmlns="http://www.w3.org/2000/svg" xmlns:xlink="http://www.w3.org/1999/xlink" x="0px" y="0px"
	 viewBox="0 0 480 480" style="enable-background:new 0 0 480 480;" xml:space="preserve">
<g>
	<g>
		<g>
			<path d="M464,217.472V128c0-4.416-3.584-8-8-8h-32v-8c0-4.416-3.584-8-8-8V64c0-4.416-3.584-8-8-8h-32c-4.416,0-8,3.584-8,8v40
				c-4.416,0-8,3.584-8,8v32v104v32v104v32c0,0.112,0.064,0.208,0.064,0.328c0.04,0.912-0.136,1.824,0.224,2.688
				c0.016,0.04-0.288,0.08-0.288,0.12c0,0.008,0,0.008,0,0.016l24.328,56c1.256,2.944,4.312,4.848,7.512,4.848
				c3.2,0,6.496-1.904,7.76-4.848l24.408-56c0-0.008,0-0.008,0-0.016c0-0.04-0.304-0.08-0.288-0.12
				c0.352-0.872,0.344-1.776,0.384-2.688c-0.008-0.12-0.104-0.216-0.104-0.328v-32V280v-32V144v-8h24v81.472
				c-9.288,3.312-16,12.112-16,22.528c0,13.232,10.768,24,24,24s24-10.768,24-24C480,229.584,473.288,220.784,464,217.472z M384,72
				h16v32h-16V72z M392,451.688L380.136,424h23.736L392,451.688z M408,408h-32v-16h32V408z M408,376h-32v-88h32V376z M408,272h-32
				v-16h32V272z M408,240h-32v-24h8c4.416,0,8-3.584,8-8s-3.584-8-8-8h-8v-16h8c4.416,0,8-3.584,8-8s-3.584-8-8-8h-8v-16h32V240z
				 M408,136h-32v-16h32V136z M456,248c-4.408,0-8-3.592-8-8c0-4.408,3.592-8,8-8c4.408,0,8,3.592,8,8S460.408,248,456,248z"/>
			<path d="M288,56h-32h-9.968l-11.04-38.552C232.12,7.176,222.632,0,211.92,0h-95.84c-10.712,0-20.192,7.176-23.048,17.4L81.968,56
				H72H40C17.944,56,0,73.944,0,96v344c0,22.056,17.944,40,40,40h248c22.056,0,40-17.944,40-40V112V96C328,73.944,310.056,56,288,56
				z M64,80c0-4.408,3.592-8,8-8h16c3.568,0,6.704-2.36,7.688-5.8l12.736-44.448c0.944-3.384,4.088-5.752,7.656-5.752h95.84
				c3.56,0,6.704,2.368,7.664,5.808l12.72,44.4c0.056,0.184,0.176,0.328,0.24,0.504c0.128,0.344,0.288,0.64,0.456,0.96
				c0.288,0.552,0.616,1.048,1.016,1.512c0.232,0.264,0.448,0.512,0.712,0.744c0.48,0.432,1.016,0.768,1.592,1.072
				c0.272,0.144,0.52,0.32,0.816,0.432C238.04,71.768,238.992,72,240,72h16c4.408,0,8,3.592,8,8v16H64V80z M272,112h8v312H48V112h8
				H272z M312,112v328c0,13.232-10.768,24-24,24H40c-13.232,0-24-10.768-24-24V96c0-13.232,10.768-24,24-24h9.472
				C48.576,74.512,48,77.184,48,80v16h-8c-4.416,0-8,3.584-8,8v328c0,4.416,3.584,8,8,8h248c4.416,0,8-3.584,8-8V104
				c0-4.416-3.584-8-8-8h-8V80c0-2.816-0.576-5.488-1.472-8H288c13.232,0,24,10.768,24,24V112z"/>
			<path d="M165.04,27.6c-13.504,0-24.48,11.016-24.48,24.56c0,13.504,10.984,24.48,24.48,24.48c13.544,0,24.56-10.984,24.56-24.48
				C189.6,38.616,178.584,27.6,165.04,27.6z M165.04,60.64c-4.672,0-8.48-3.808-8.48-8.48c0-4.8,3.728-8.56,8.48-8.56
				c4.8,0,8.56,3.76,8.56,8.56C173.6,56.912,169.84,60.64,165.04,60.64z"/>
			<path d="M144,160h64c4.416,0,8-3.584,8-8s-3.584-8-8-8h-64c-4.416,0-8,3.584-8,8S139.584,160,144,160z"/>
			<path d="M240,160h16c4.416,0,8-3.584,8-8s-3.584-8-8-8h-16c-4.416,0-8,3.584-8,8S235.584,160,240,160z"/>
			<path d="M256,184h-64c-4.416,0-8,3.584-8,8s3.584,8,8,8h64c4.416,0,8-3.584,8-8S260.416,184,256,184z"/>
			<path d="M144,200h16c4.416,0,8-3.584,8-8s-3.584-8-8-8h-16c-4.416,0-8,3.584-8,8S139.584,200,144,200z"/>
			<path d="M82.344,197.656C83.848,199.168,85.888,200,88,200c0.328,0,0.656-0.016,0.976-0.056c2.448-0.304,4.616-1.712,5.88-3.824
				l24-40c2.272-3.792,1.048-8.704-2.744-10.976c-3.792-2.28-8.704-1.048-10.976,2.744l-18.728,31.216l-8.752-8.752
				c-3.128-3.128-8.184-3.128-11.312,0s-3.128,8.184,0,11.312L82.344,197.656z"/>
			<path d="M144,264h64c4.416,0,8-3.584,8-8c0-4.416-3.584-8-8-8h-64c-4.416,0-8,3.584-8,8C136,260.416,139.584,264,144,264z"/>
			<path d="M256,248h-16c-4.416,0-8,3.584-8,8c0,4.416,3.584,8,8,8h16c4.416,0,8-3.584,8-8C264,251.584,260.416,248,256,248z"/>
			<path d="M256,288h-64c-4.416,0-8,3.584-8,8c0,4.416,3.584,8,8,8h64c4.416,0,8-3.584,8-8C264,291.584,260.416,288,256,288z"/>
			<path d="M144,304h16c4.416,0,8-3.584,8-8c0-4.416-3.584-8-8-8h-16c-4.416,0-8,3.584-8,8C136,300.416,139.584,304,144,304z"/>
			<path d="M82.344,301.656C83.848,303.168,85.888,304,88,304c0.328,0,0.656-0.016,0.976-0.056c2.448-0.304,4.616-1.712,5.88-3.824
				l24-40c2.272-3.792,1.048-8.704-2.744-10.976c-3.792-2.288-8.704-1.048-10.976,2.744l-18.728,31.216l-8.752-8.752
				c-3.128-3.128-8.184-3.128-11.312,0s-3.128,8.184,0,11.312L82.344,301.656z"/>
			<path d="M144,360h64c4.416,0,8-3.584,8-8c0-4.416-3.584-8-8-8h-64c-4.416,0-8,3.584-8,8C136,356.416,139.584,360,144,360z"/>
			<path d="M256,344h-16c-4.416,0-8,3.584-8,8c0,4.416,3.584,8,8,8h16c4.416,0,8-3.584,8-8C264,347.584,260.416,344,256,344z"/>
			<path d="M256,384h-64c-4.416,0-8,3.584-8,8c0,4.416,3.584,8,8,8h64c4.416,0,8-3.584,8-8C264,387.584,260.416,384,256,384z"/>
			<path d="M144,400h16c4.416,0,8-3.584,8-8c0-4.416-3.584-8-8-8h-16c-4.416,0-8,3.584-8,8C136,396.416,139.584,400,144,400z"/>
			<path d="M82.344,397.656C83.848,399.168,85.888,400,88,400c0.328,0,0.656-0.016,0.976-0.056c2.448-0.304,4.616-1.712,5.88-3.824
				l24-40c2.272-3.792,1.048-8.704-2.744-10.976c-3.792-2.28-8.704-1.048-10.976,2.744l-18.728,31.216l-8.752-8.752
				c-3.128-3.128-8.184-3.128-11.312,0s-3.128,8.184,0,11.312L82.344,397.656z"/>
		</g>
	</g>
</g>
<g>
</g>
<g>
</g>
<g>
</g>
<g>
</g>
<g>
</g>
<g>
</g>
<g>
</g>
<g>
</g>
<g>
</g>
<g>
</g>
<g>
</g>
<g>
</g>
<g>
</g>
<g>
</g>
<g>
</g>
</svg>
